<svg xmlns="http://www.w3.org/2000/svg" viewBox="0 0 64 64"><g data-name="Filled outline"><circle cx="32" cy="32" r="29" fill="#fc0"/><circle cx="19.5" cy="25.5" r="6.5" fill="#ff9c00"/><circle cx="40" cy="20" r="4" fill="#ff9c00"/><circle cx="41" cy="41" r="2" fill="#ff9c00"/><path fill="#ff9c00" d="M22,53a4,4,0,0,0-4,4,3.934,3.934,0,0,0,.043.423,28.814,28.814,0,0,0,6.533,2.614A3.984,3.984,0,0,0,22,53Z"/><path fill="#ffdf00" d="M55.881 53.147a4.984 4.984 0 01-3.528-3.528.9.9 0 00-1.706 0 4.984 4.984 0 01-3.528 3.528.9.9 0 000 1.706 4.984 4.984 0 013.528 3.528.9.9 0 001.706 0 4.984 4.984 0 013.528-3.528A.9.9 0 0055.881 53.147zM16.133 8.806a6.98 6.98 0 01-4.939-4.939 1.256 1.256 0 00-2.388 0A6.98 6.98 0 013.867 8.806a1.256 1.256 0 000 2.388 6.98 6.98 0 014.939 4.939 1.256 1.256 0 002.388 0 6.98 6.98 0 014.939-4.939A1.256 1.256 0 0016.133 8.806z"/><path fill="#1e120b" d="M19.5 18A7.5 7.5 0 1027 25.5 7.508 7.508 0 0019.5 18zm0 13A5.5 5.5 0 1125 25.5 5.506 5.506 0 0119.5 31zM40 15a5 5 0 105 5A5.006 5.006 0 0040 15zm0 8a3 3 0 113-3A3 3 0 0140 23zM41 38a3 3 0 103 3A3 3 0 0041 38zm0 4a1 1 0 111-1A1 1 0 0141 42z"/><circle cx="17" cy="38" r="1" fill="#1e120b"/><circle cx="34" cy="48" r="1" fill="#1e120b"/><circle cx="51" cy="36" r="1" fill="#1e120b"/><path fill="#1e120b" d="M48.962,13.624a1,1,0,0,0,0,1.414A24.042,24.042,0,0,1,53.7,21.751a1,1,0,1,0,1.807-.857,26,26,0,0,0-5.131-7.27A1,1,0,0,0,48.962,13.624Z"/><circle cx="56" cy="25" r="1" fill="#1e120b"/><path fill="#1e120b" d="M32,2A29.771,29.771,0,0,0,15.065,7.265,5.858,5.858,0,0,1,12.14,3.543a2.255,2.255,0,0,0-4.28,0A5.983,5.983,0,0,1,3.543,7.86a2.255,2.255,0,0,0,0,4.28,5.858,5.858,0,0,1,3.722,2.925A29.967,29.967,0,0,0,48.693,56.9,4.706,4.706,0,0,1,49.7,58.705a1.9,1.9,0,0,0,3.6,0A3.985,3.985,0,0,1,56.205,55.8a1.9,1.9,0,0,0,0-3.6,5.508,5.508,0,0,1-1.426-.692A29.99,29.99,0,0,0,32,2ZM4.191,10.249a.258.258,0,0,1,0-.5,7.958,7.958,0,0,0,5.56-5.56.258.258,0,0,1,.5,0,7.958,7.958,0,0,0,5.56,5.56.258.258,0,0,1,0,.5,7.958,7.958,0,0,0-5.56,5.56.258.258,0,0,1-.5,0A7.958,7.958,0,0,0,4.191,10.249ZM24.277,58.908A27.855,27.855,0,0,1,19.02,56.8,2.993,2.993,0,0,1,25,57,2.946,2.946,0,0,1,24.277,58.908ZM55.3,54a5.815,5.815,0,0,0-3.8,3.8A5.815,5.815,0,0,0,47.7,54a5.815,5.815,0,0,0,3.8-3.8A5.815,5.815,0,0,0,55.3,54Zm-1.764-4.1c-.081-.186-.159-.384-.233-.6a1.9,1.9,0,0,0-3.6,0A3.985,3.985,0,0,1,46.8,52.2a1.892,1.892,0,0,0-.042,3.576,27.944,27.944,0,0,1-20.4,3.65A4.921,4.921,0,0,0,27,57a4.989,4.989,0,0,0-9.82-1.259,27.942,27.942,0,0,1-8.91-38.57A2.216,2.216,0,0,0,10,18a2.24,2.24,0,0,0,2.14-1.543,5.983,5.983,0,0,1,4.317-4.317A2.24,2.24,0,0,0,18,10a2.216,2.216,0,0,0-.829-1.73A27.989,27.989,0,0,1,53.532,49.9Z"/></g></svg>