<svg xmlns="http://www.w3.org/2000/svg" viewBox="0 0 48 48"><path fill="#ffba55" d="M24,1a4.91,4.91,0,0,0,8.8,1.75h0a4.91,4.91,0,0,0,7.46,5h0a4.91,4.91,0,0,0,5,7.46h0A4.91,4.91,0,0,0,47,24h0a4.91,4.91,0,0,0-1.75,8.8h0a4.91,4.91,0,0,0-5,7.46h0a4.91,4.91,0,0,0-7.46,5h0A4.91,4.91,0,0,0,24,47h0a4.91,4.91,0,0,0-8.8-1.75h0a4.91,4.91,0,0,0-7.46-5h0a4.91,4.91,0,0,0-5-7.46h0A4.91,4.91,0,0,0,1,24H1a4.91,4.91,0,0,0,1.75-8.8h0a4.91,4.91,0,0,0,5-7.46h0a4.91,4.91,0,0,0,7.46-5h0A4.91,4.91,0,0,0,24,1Z"/><path fill="#fc6" d="M38,24A14,14,0,1,1,17.85,11.43,14,14,0,0,1,38,24Z"/><path fill="#ffde76" d="M38,24a14,14,0,0,1-4.82,10.56A14,14,0,0,1,17.85,11.43,14,14,0,0,1,38,24Z"/><path d="M24,9A15,15,0,1,0,39,24,15,15,0,0,0,24,9Zm0,28A13,13,0,1,1,37,24,13,13,0,0,1,24,37Z"/><path d="M47.22,23a3.9,3.9,0,0,1-1.4-7,1,1,0,0,0-.74-1.81,3.91,3.91,0,0,1-4-5.94,1,1,0,0,0-1.38-1.38,3.91,3.91,0,0,1-5.94-4A1,1,0,0,0,32,2.18a3.9,3.9,0,0,1-7-1.4,1,1,0,0,0-2,0,3.9,3.9,0,0,1-7,1.4,1,1,0,0,0-1.81.74,3.91,3.91,0,0,1-5.94,4A1,1,0,0,0,6.89,8.27a3.91,3.91,0,0,1-4,5.94A1,1,0,0,0,2.18,16a3.9,3.9,0,0,1-1.4,7,1,1,0,0,0,0,2,3.9,3.9,0,0,1,1.4,7,1,1,0,0,0,.74,1.81,3.91,3.91,0,0,1,4,5.94,1,1,0,0,0,1.38,1.38,3.91,3.91,0,0,1,5.94,4,1,1,0,0,0,1.81.74,3.9,3.9,0,0,1,7,1.4,1,1,0,0,0,2,0,3.9,3.9,0,0,1,7-1.4,1,1,0,0,0,1.81-.74,3.91,3.91,0,0,1,5.94-4,1,1,0,0,0,1.38-1.38,3.91,3.91,0,0,1,4-5.94A1,1,0,0,0,45.82,32a3.9,3.9,0,0,1,1.4-7A1,1,0,0,0,47.22,23ZM43,31.88a6,6,0,0,0-4.47,6.68A6,6,0,0,0,31.88,43,5.94,5.94,0,0,0,24,44.6,5.94,5.94,0,0,0,16.12,43a6,6,0,0,0-6.68-4.47A6,6,0,0,0,5,31.88,5.93,5.93,0,0,0,3.4,24,5.94,5.94,0,0,0,5,16.12,6,6,0,0,0,9.44,9.44,6,6,0,0,0,16.12,5,5.94,5.94,0,0,0,24,3.4,5.94,5.94,0,0,0,31.88,5a6,6,0,0,0,6.68,4.47A6,6,0,0,0,43,16.12,5.93,5.93,0,0,0,44.6,24,5.94,5.94,0,0,0,43,31.88Z"/></svg>