<svg xmlns="http://www.w3.org/2000/svg" enable-background="new 0 0 64 64" viewBox="0 0 64 64"><path fill="#f1b974" d="M17.6,42.09c-1.33,1.86-3.89,2.41-5.88,1.2c-1.99-1.21-2.67-3.74-1.63-5.77L17.6,42.09z"/><path fill="#ebc25d" d="M27.63,12.44c-0.02,0.01-0.05,0.02-0.08,0.02c-0.32,0.02-0.77,0.03-1.32,0.01c-0.01,0-0.03,0-0.05-0.01
				c-0.74-0.02-1.64-0.1-2.6-0.3c-0.47-0.09-0.94-0.22-1.42-0.37c-1.37-0.44-2.6-1.02-3.54-1.5c-1.25-0.64-1.05-2.78,0.29-3.05
				c0.94-0.19,2.27-0.05,4.17,0.85c3.43,1.62,4.5,2.92,4.83,3.67c0,0.01,0.01,0.01,0.01,0.02C28.04,12.06,27.9,12.38,27.63,12.44z"/><path fill="#ededee" d="M24.1,32.2c2,2.36,3.67,4.32,4.7,6.16c-0.77,2.1-1.31,4.34-1.55,6.74L3,30.32
				c4.85-3.41,8.04-7.83,10.67-12.58c0.75-1.23,1.69-2.27,2.76-3.1v3.73c0,2.22,2.17,3.79,4.28,3.1l2.84-0.95
				c-0.16,0.41-0.43,0.83-0.83,1.27c0.04-0.02,0.29-0.15,0.67-0.28c-0.74,1.08-1.32,2.29-1.57,3.61c-0.45,2.35,0.24,4.69,2,6.75
				L24.1,32.2z"/><path fill="#f26e62" d="M29.17 14c-.29.01-.58.09-.84.22.2-.39.21-.83.21-.83.19.09.38.17.55.22C29.1 13.74 29.13 13.87 29.17 14zM30.95 14.77c-.02.01-.04.03-.06.05-.08-.11-.17-.21-.27-.3C30.73 14.59 30.84 14.68 30.95 14.77zM31.29 15.91c.01.15.01.29-.02.44.03-.2.03-.41 0-.61C31.28 15.8 31.29 15.85 31.29 15.91zM30.45 29.86c.54.72 1.06 1.45 1.55 2.19-.44.67-.85 1.35-1.24 2.04-1.08-1.5-2.33-2.98-3.61-4.48l-.28-.33c-.97-1.14-1.33-2.26-1.12-3.4.22-1.19 1.01-2.35 1.99-3.36.02-.03.04-.05.06-.07.38-.41.8-.79 1.23-1.14C28.4 24.14 28.83 27.19 30.45 29.86z"/><path fill="#ebc25d" d="M27.56,47.61c-0.08,0.1-0.18,0.21-0.27,0.32c-0.1-0.02-0.2-0.06-0.3-0.12l-9.39-5.72l-2.1-1.28l-5.4-3.29
				v-0.01l-9.61-5.85c-0.48-0.3-0.64-0.93-0.34-1.41v-0.01c0.04-0.05,0.08-0.11,0.12-0.15c-0.18,0.45-0.01,0.98,0.42,1.24
				l26.49,16.15C27.3,47.55,27.43,47.6,27.56,47.61z"/><path fill="#ffdc7d" d="M28.64 46.14c-.3.47-.66.96-1.08 1.47-.13-.01-.26-.06-.38-.13L.69 31.33c-.43-.26-.6-.79-.42-1.24.02-.06.05-.12.08-.17v-.01c.3-.48.93-.64 1.42-.34L3 30.32l25.25 15.4C28.42 45.82 28.56 45.97 28.64 46.14zM46.4 42.09c1.33 1.86 3.89 2.41 5.88 1.2 1.99-1.21 2.67-3.74 1.63-5.77L46.4 42.09z"/><path fill="#f1b974" d="M41.51 12.22c-.04.02-.07.03-.11.03-.02-.01-.04-.03-.05-.05C41.4 12.2 41.45 12.21 41.51 12.22zM61 30.32L36.75 45.1c-.51-4.94-2.24-9.21-4.75-13.05-.49-.74-1.01-1.47-1.55-2.19-1.62-2.67-2.05-5.72-1.42-8.55.35-.31.71-.59 1.06-.84.18.02.38.06.6.12 0 0-.1-.15-.2-.4.64-.44 1.2-.79 1.6-1l-.53-1c.52.2 1.07.17 1.54-.04l.81.26 9.79 3.06c2.12.69 4.29-.88 4.29-3.1v-3.39c.9.77 1.69 1.69 2.34 2.76C52.95 22.49 56.15 26.91 61 30.32zM35.6 47.46L35.6 47.46c.3.49.93.64 1.42.35l26.5-16.15c.48-.29.64-.92.34-1.41l-.01-.01c-.03-.06-.07-.11-.12-.15.18.45.01.98-.42 1.24L36.82 47.48c-.43.26-.98.17-1.3-.19C35.53 47.35 35.56 47.4 35.6 47.46z"/><path fill="#e5a55f" d="M63.3,31.33L36.82,47.48c-0.44,0.26-0.98,0.17-1.3-0.19c-0.05-0.05-0.09-0.1-0.12-0.15v-0.01
				c-0.3-0.48-0.14-1.12,0.34-1.41l1.01-0.62L61,30.32l1.23-0.75c0.49-0.3,1.12-0.14,1.41,0.34l0.01,0.01
				c0.03,0.05,0.06,0.11,0.08,0.17C63.91,30.54,63.74,31.07,63.3,31.33z"/><path fill="#ffdc7d" d="M47.99,9.79v8.58c0,2.22-2.17,3.79-4.29,3.1l-9.79-3.06l-0.81-0.26c0.18-0.07,0.35-0.17,0.5-0.3
			c0.24-0.2,0.43-0.46,0.56-0.77c0.29-0.69,0.17-1.45-0.25-2.01c0.32,0.17,0.58,0.55,0.69,1.26c0,0,2.89-3.55,4.94,0
			c0,0,0.19-2.62,4.12-2.91c0,0-1.37-0.27-2.26-1.17c0.04,0,0.07-0.01,0.11-0.03h0.01c0.11-0.03,0.22-0.06,0.33-0.1
			c1.37-0.43,2.6-1.01,3.53-1.5c1.24-0.63,1.06-2.77-0.3-3.05c-0.92-0.2-2.26-0.05-4.16,0.86c-1.45,0.68-2.48,1.31-3.21,1.87
			c-0.3-0.17-0.59-0.45-0.84-0.87c-0.02,0.06-1.08,2.54-3.88,1.46c0.04-0.49,0.43-1,1.69-1.26c0,0-0.11-0.06-0.26-0.18L44,6.61
			C46.05,6.14,47.99,7.69,47.99,9.79z"/><path fill="#ffdc7d" d="M45.38 10.62c-.93.49-2.16 1.07-3.53 1.5-.11.04-.22.07-.33.1h-.01c-.04.02-.07.03-.11.03-.02-.01-.04-.03-.05-.05-.51-.54-.84-1.29-.63-2.33 0 0-1.67 1.21-3.01.43.73-.56 1.76-1.19 3.21-1.87 1.9-.91 3.24-1.06 4.16-.86C46.44 7.85 46.62 9.99 45.38 10.62zM28.26 11.83c.79-1.23.7-2.06.35-2.62l-8.2-2.6c-2.04-.47-3.98 1.08-3.98 3.18v8.58c0 2.22 2.17 3.79 4.28 3.1l2.84-.95c0 0 0 0 0-.01.78-1.91-.71-3.27-.71-3.27 4.48 1.32 3.23-2.97 3.23-2.97.73.47 1.25.57 1.61.49.18-.23.4-.41.65-.54.2-.39.21-.83.21-.83.19.09.38.17.55.22v-.07c-.01-.19.01-.37.06-.56C28.27 12.1 28.26 11.84 28.26 11.83zM27.63 12.44c-.02.01-.05.02-.08.02-.32.02-.77.03-1.32.01-.01 0-.03 0-.05-.01-.74-.02-1.64-.1-2.6-.3-.47-.09-.94-.22-1.42-.37-1.37-.44-2.6-1.02-3.54-1.5-1.25-.64-1.05-2.78.29-3.05.94-.19 2.27-.05 4.17.85 3.43 1.62 4.5 2.92 4.83 3.67 0 .01.01.01.01.02C28.04 12.06 27.9 12.38 27.63 12.44z"/><path fill="#ffdc7d" d="M29.17,14c-0.29,0.01-0.58,0.09-0.84,0.22c0.2-0.39,0.21-0.83,0.21-0.83c0.19,0.09,0.38,0.17,0.55,0.22
			C29.1,13.74,29.13,13.87,29.17,14z"/><path fill="#ebc25d" d="M45.38,10.62c-0.93,0.49-2.16,1.07-3.53,1.5c-0.11,0.04-0.22,0.07-0.33,0.1h-0.01
			c-0.04,0.02-0.07,0.03-0.11,0.03c-0.02-0.01-0.04-0.03-0.05-0.05c-0.51-0.54-0.84-1.29-0.63-2.33c0,0-1.67,1.21-3.01,0.43
			c0.73-0.56,1.76-1.19,3.21-1.87c1.9-0.91,3.24-1.06,4.16-0.86C46.44,7.85,46.62,9.99,45.38,10.62z"/><g><path fill="#ededee" d="M40.19 60.36l2.38 1.89c-3.96-.1-17.06-.87-19.14-6.2-.54-1.41-.6-3.66 2.22-6.39.62-.6 1.16-1.18 1.64-1.73.09-.11.19-.22.27-.32.42-.51.78-1 1.08-1.47 1.82-2.86 1.61-5.2.16-7.78-1.03-1.84-2.7-3.8-4.7-6.16l-.28-.33c-1.76-2.06-2.45-4.4-2-6.75.25-1.32.83-2.53 1.57-3.61h.01c.98-.33 2.83-.61 4.34 1.01-.98 1.01-1.77 2.17-1.99 3.36-.21 1.14.15 2.26 1.12 3.4l.28.33c1.28 1.5 2.53 2.98 3.61 4.48 3.85 5.33 5.47 10.91-2.32 18.45-1.04 1-1.39 1.76-1.27 2.05.67 1.74 7.92 3.45 15.51 3.66L40.19 60.36zM30.09 20.47c-.35.25-.71.53-1.06.84-.43.35-.85.73-1.23 1.14.03-.41.24-1.68 1.43-1.95C29.47 20.44 29.76 20.42 30.09 20.47z"/></g><g><path fill="#93cdbe" d="M29.17 14c-.29.01-.58.09-.84.22.2-.39.21-.83.21-.83.19.09.38.17.55.22C29.1 13.74 29.13 13.87 29.17 14zM27.8 22.45c-.01.06-.01.11-.01.12-.02-.02-.03-.04-.05-.05C27.76 22.49 27.78 22.47 27.8 22.45z"/><path fill="#93cdbe" d="M30.49,20.19c0.1,0.25,0.2,0.4,0.2,0.4c-0.22-0.06-0.42-0.1-0.6-0.12c-0.33-0.05-0.62-0.03-0.86,0.03
				c-1.19,0.27-1.4,1.54-1.43,1.95c-0.02,0.02-0.04,0.04-0.06,0.07c-1.51-1.62-3.36-1.34-4.34-1.01h-0.01
				c-0.38,0.13-0.63,0.26-0.67,0.28c0.4-0.44,0.67-0.86,0.83-1.27c0,0,0,0,0-0.01c0.78-1.91-0.71-3.27-0.71-3.27
				c4.48,1.32,3.23-2.97,3.23-2.97c0.73,0.47,1.25,0.57,1.61,0.49c-0.12,0.14-0.22,0.3-0.29,0.48c-0.11,0.26-0.16,0.52-0.16,0.79
				c0,0.11,0.01,0.22,0.03,0.33c0.01,0.09,0.03,0.17,0.06,0.25c0.02,0.09,0.06,0.19,0.1,0.27c0.06,0.14,0.14,0.28,0.24,0.4
				c0.07,0.09,0.15,0.18,0.24,0.25c0.05,0.05,0.1,0.09,0.16,0.13c0.04,0.04,0.09,0.07,0.14,0.1c0.08,0.05,0.17,0.1,0.27,0.14
				c0.27,0.11,0.56,0.16,0.83,0.16c0.12,0,0.23-0.02,0.34-0.04c0.12-0.02,0.23-0.05,0.33-0.09c0.08-0.03,0.14-0.07,0.22-0.1
				c0.13-0.06,0.25-0.14,0.36-0.24c0.04-0.02,0.07-0.05,0.11-0.08c0.06,0.09,0.14,0.17,0.23,0.25c0.08,0.08,0.16,0.15,0.25,0.2
				c0.11,0.09,0.23,0.15,0.36,0.21c0.02,0.01,0.04,0.02,0.06,0.02l0.53,1C31.69,19.4,31.13,19.75,30.49,20.19z"/><path fill="#e1636e" d="M33,14.23c-0.02,0.05-0.05,0.09-0.07,0.14c-0.26-0.09-0.53-0.12-0.8-0.1c-0.23,0.01-0.47,0.07-0.68,0.17
				c-0.18,0.08-0.35,0.19-0.5,0.33c-0.11-0.09-0.22-0.18-0.33-0.25c-0.04-0.03-0.08-0.06-0.12-0.1c-0.04-0.03-0.09-0.07-0.13-0.09
				c-0.02-0.02-0.05-0.04-0.07-0.05c-0.08-0.05-0.16-0.09-0.25-0.13c-0.1-0.04-0.2-0.07-0.31-0.09c-0.04-0.01-0.07-0.02-0.11-0.02
				c-0.02-0.01-0.04-0.01-0.06-0.01C29.48,14.01,29.39,14,29.29,14h-0.12c-0.04-0.13-0.07-0.26-0.08-0.39v-0.07
				c-0.01-0.19,0.01-0.37,0.06-0.56c0.02-0.11,0.05-0.22,0.1-0.32c0.05-0.11,0.1-0.22,0.17-0.32c0.04-0.07,0.09-0.14,0.15-0.2
				c0.05-0.07,0.11-0.13,0.18-0.19c0.03-0.04,0.08-0.07,0.12-0.1c0.02-0.03,0.05-0.05,0.08-0.06c0.04-0.04,0.09-0.07,0.14-0.09
				c0.12-0.08,0.25-0.14,0.39-0.18c0.1-0.04,0.21-0.07,0.32-0.08c0.1-0.02,0.21-0.03,0.32-0.03c0.18,0,0.36,0.02,0.53,0.07
				c0.09,0.02,0.17,0.05,0.26,0.09c0.37,0.15,0.67,0.4,0.87,0.71C33.17,12.82,33.28,13.56,33,14.23z"/><path fill="#e15f5a" d="M30.95,14.77c-0.02,0.01-0.04,0.03-0.06,0.05c-0.08-0.11-0.17-0.21-0.27-0.3
				C30.73,14.59,30.84,14.68,30.95,14.77z"/><path fill="#93cdbe" d="M43.66,13.42c-3.93,0.29-4.12,2.91-4.12,2.91c-2.05-3.55-4.94,0-4.94,0c-0.11-0.71-0.37-1.09-0.69-1.26
				c-0.04-0.05-0.08-0.1-0.12-0.14c-0.06-0.08-0.14-0.14-0.21-0.2c-0.06-0.05-0.12-0.1-0.19-0.14c-0.01-0.02-0.03-0.03-0.05-0.04
				c-0.08-0.05-0.17-0.09-0.27-0.13c-0.04-0.02-0.09-0.04-0.14-0.05c0.02-0.05,0.05-0.09,0.07-0.14c0.28-0.67,0.17-1.41-0.22-1.95
				c-0.2-0.31-0.5-0.56-0.87-0.71c-0.09-0.04-0.17-0.07-0.26-0.09c-0.17-0.05-0.35-0.07-0.53-0.07c-0.11,0-0.22,0.01-0.32,0.03
				c-0.11,0.01-0.22,0.04-0.32,0.08c-0.14,0.04-0.27,0.1-0.39,0.18c-0.05,0.02-0.1,0.05-0.14,0.09c-0.03,0.01-0.06,0.03-0.08,0.06
				c-0.04,0.03-0.09,0.06-0.12,0.1c-0.07,0.06-0.13,0.12-0.18,0.19c-0.06,0.06-0.11,0.13-0.15,0.2c-0.07,0.1-0.12,0.21-0.17,0.32
				c-0.05,0.1-0.08,0.21-0.1,0.32c-0.88-0.88-0.89-1.14-0.89-1.15c0.79-1.23,0.7-2.06,0.35-2.62c-0.48-0.74-1.42-0.98-1.42-0.98
				c2.67-1.42,0.89-3.49,0.89-3.49c3.17,0.24,4.31-2.99,4.31-2.99c-0.1,3.37,2.6,3.43,2.81,3.43C31.72,7,33.66,8.87,34.42,9.45
				c0.15,0.12,0.26,0.18,0.26,0.18c-1.26,0.26-1.65,0.77-1.69,1.26c2.8,1.08,3.86-1.4,3.88-1.46c0.25,0.42,0.54,0.7,0.84,0.87
				c1.34,0.78,3.01-0.43,3.01-0.43c-0.21,1.04,0.12,1.79,0.63,2.33c0.01,0.02,0.03,0.04,0.05,0.05
				C42.29,13.15,43.66,13.42,43.66,13.42z"/><path fill="#e95e61" d="M31.29,15.91c0.01,0.15,0.01,0.29-0.02,0.44c0.03-0.2,0.03-0.41,0-0.61C31.28,15.8,31.29,15.85,31.29,15.91z
			"/><path fill="#e15f5a" d="M34.16,17.08c-0.13,0.31-0.32,0.57-0.56,0.77c-0.15,0.13-0.32,0.23-0.5,0.3c-0.47,0.21-1.02,0.24-1.54,0.04
			c-0.02,0-0.04-0.01-0.06-0.02c-0.13-0.06-0.25-0.12-0.36-0.21c-0.09-0.05-0.17-0.12-0.25-0.2c-0.09-0.08-0.17-0.16-0.23-0.25
			c0.09-0.09,0.17-0.18,0.24-0.28c0.03-0.04,0.06-0.08,0.08-0.12c0-0.01,0-0.01,0-0.01c0.07-0.09,0.12-0.19,0.16-0.29
			c0.02-0.04,0.03-0.08,0.04-0.12c0.04-0.11,0.07-0.22,0.09-0.34c0.03-0.15,0.03-0.29,0.02-0.44c0-0.06-0.01-0.11-0.02-0.17
			c-0.01-0.09-0.03-0.17-0.05-0.26c-0.07-0.24-0.18-0.47-0.33-0.66c0.02-0.02,0.04-0.04,0.06-0.05c0.15-0.14,0.32-0.25,0.5-0.33
			c0.21-0.1,0.45-0.16,0.68-0.17c0.27-0.02,0.54,0.01,0.8,0.1c0.05,0.01,0.1,0.03,0.14,0.05c0.1,0.04,0.19,0.08,0.27,0.13
			c0.02,0.01,0.04,0.02,0.05,0.04c0.07,0.04,0.13,0.09,0.19,0.14c0.07,0.06,0.15,0.12,0.21,0.2c0.04,0.04,0.08,0.09,0.12,0.14
			C34.33,15.63,34.45,16.39,34.16,17.08z"/><path fill="#f26e62" d="M31.27,15.74c0.03,0.2,0.03,0.41,0,0.61c-0.02,0.12-0.05,0.23-0.09,0.34c-0.01,0.04-0.02,0.08-0.04,0.12
			c-0.04,0.1-0.09,0.2-0.16,0.29c0,0,0,0,0,0.01c-0.02,0.04-0.05,0.08-0.08,0.12c-0.07,0.1-0.15,0.19-0.24,0.28
			c-0.04,0.03-0.07,0.06-0.11,0.08c-0.11,0.1-0.23,0.18-0.36,0.24c-0.08,0.03-0.14,0.07-0.22,0.1c-0.1,0.04-0.21,0.07-0.33,0.09
			c-0.11,0.02-0.22,0.04-0.34,0.04c-0.27,0-0.56-0.05-0.83-0.16c-0.1-0.04-0.19-0.09-0.27-0.14c-0.05-0.03-0.1-0.06-0.14-0.1
			c-0.06-0.04-0.11-0.08-0.16-0.13c-0.09-0.07-0.17-0.16-0.24-0.25c-0.1-0.12-0.18-0.26-0.24-0.4c-0.04-0.08-0.08-0.18-0.1-0.27
			c-0.03-0.08-0.05-0.16-0.06-0.25c-0.02-0.11-0.03-0.22-0.03-0.33c0-0.27,0.05-0.53,0.16-0.79c0.07-0.18,0.17-0.34,0.29-0.48
			c0.18-0.23,0.4-0.41,0.65-0.54c0.26-0.13,0.55-0.21,0.84-0.22h0.12c0.1,0,0.19,0.01,0.28,0.03c0.02,0,0.04,0,0.06,0.01
			c0.04,0,0.07,0.01,0.11,0.02c0.11,0.02,0.21,0.05,0.31,0.09c0.09,0.04,0.17,0.08,0.25,0.13c0.02,0.01,0.05,0.03,0.07,0.05
			c0.04,0.02,0.09,0.06,0.13,0.09c0.04,0.04,0.08,0.07,0.12,0.1c0.1,0.09,0.19,0.19,0.27,0.3c0.15,0.19,0.26,0.42,0.33,0.66
			C31.24,15.57,31.26,15.65,31.27,15.74z"/><path fill="#f26e62" d="M31.29,15.91c0.01,0.15,0.01,0.29-0.02,0.44c0.03-0.2,0.03-0.41,0-0.61C31.28,15.8,31.29,15.85,31.29,15.91z"/></g></svg>