<svg width="200" height="200" viewBox="0 0 200 200" fill="none" xmlns="http://www.w3.org/2000/svg">
<path d="M120.923 136.123L158 148.399L156.933 129.647L116.368 92.8896C116.368 92.8896 107.152 31.0822 106.334 24.4638C104.448 10.1239 99.9644 5 99.9644 5C99.9644 5 95.5166 10.1239 93.7018 24.4282C92.8479 31.0822 83.6319 92.8896 83.6319 92.8896L43.0675 129.647L42 148.399L79.0773 136.123L79.5755 140.499L60.8233 161.244L67.335 170.994L93.4172 167.756L99.9288 187.184L106.512 167.756L132.629 170.994L139.141 161.244L120.389 140.499L120.923 136.123Z" fill="url(#paint0_linear_9_36)"/>
<path d="M83.1962 170C78 170 78 171.5 78 171.5L80.5981 182.75L83.1962 180.2L85.7942 182.75L88.3923 171.5C88.3923 171.5 88.3923 170 83.1962 170Z" fill="#F4A582"/>
<path d="M80.5981 182.75L83.1962 194L85.7942 182.75L83.1962 180.2L80.5981 182.75Z" fill="#E8CE9B"/>
<path d="M116.217 170C111.021 170 111.021 171.5 111.021 171.5L113.619 182.75L116.217 180.2L118.815 182.75L121.413 171.5C121.413 171.5 121.413 170 116.217 170Z" fill="#F4A582"/>
<path d="M113.619 182.75L116.217 194L118.815 182.75L116.217 180.2L113.619 182.75Z" fill="#E8CE9B"/>
<path d="M100.5 100L103.755 110.019L114.29 110.019L105.767 116.211L109.023 126.231L100.5 120.039L91.9771 126.231L95.2326 116.211L86.7097 110.019L97.2445 110.019L100.5 100Z" fill="#8ED585"/>
<defs>
<linearGradient id="paint0_linear_9_36" x1="100" y1="5" x2="100" y2="187.184" gradientUnits="userSpaceOnUse">
<stop stop-color="#6DC5AA"/>
<stop offset="1" stop-color="#80B1D6"/>
</linearGradient>
</defs>
</svg>
